<svg width="22" height="22" viewBox="0 0 22 22" fill="none" xmlns="http://www.w3.org/2000/svg">
<path d="M17.4167 2.75H4.58333C3.57081 2.75 2.75 3.57081 2.75 4.58333V17.4167C2.75 18.4292 3.57081 19.25 4.58333 19.25H17.4167C18.4292 19.25 19.25 18.4292 19.25 17.4167V4.58333C19.25 3.57081 18.4292 2.75 17.4167 2.75Z" stroke="white" stroke-opacity="0.6" stroke-width="1.375"/>
<path d="M7.79175 9.16675C8.55114 9.16675 9.16675 8.55114 9.16675 7.79175C9.16675 7.03236 8.55114 6.41675 7.79175 6.41675C7.03236 6.41675 6.41675 7.03236 6.41675 7.79175C6.41675 8.55114 7.03236 9.16675 7.79175 9.16675Z" stroke="white" stroke-opacity="0.6" stroke-width="1.375"/>
<path d="M19.2499 13.7501L14.6666 9.16675L4.58325 19.2501" stroke="white" stroke-opacity="0.6" stroke-width="1.375"/>
</svg>
