<svg width="14" height="14" viewBox="0 0 14 14" fill="none" xmlns="http://www.w3.org/2000/svg">
<path d="M6.66651 0.666504C5.87086 1.46215 5.42387 2.54129 5.42387 3.6665C5.42387 4.79172 5.87086 5.87085 6.66651 6.6665C7.46216 7.46215 8.54129 7.90914 9.66651 7.90914C10.7917 7.90914 11.8709 7.46215 12.6665 6.6665C12.6665 7.85319 12.3146 9.01323 11.6553 9.99993C10.996 10.9866 10.059 11.7557 8.96261 12.2098C7.86625 12.6639 6.65985 12.7827 5.49597 12.5512C4.33208 12.3197 3.26298 11.7483 2.42387 10.9091C1.58475 10.07 1.01331 9.00093 0.781795 7.83705C0.550284 6.67316 0.669104 5.46676 1.12323 4.3704C1.57736 3.27405 2.34639 2.33697 3.33309 1.67769C4.31978 1.0184 5.47982 0.666504 6.66651 0.666504Z" stroke="#64748B" stroke-width="1.33333" stroke-linecap="round" stroke-linejoin="round"/>
</svg>
