<svg width="109" height="18" viewBox="0 0 109 18" fill="none" xmlns="http://www.w3.org/2000/svg">
<g opacity="0.7">
<path d="M0 9C0 4.02944 4.02944 0 9 0C13.9706 0 18 4.02944 18 9C18 13.9706 13.9706 18 9 18C4.02944 18 0 13.9706 0 9Z" fill="#4F8EF7"/>
<path d="M12.3332 6.5L7.74984 11.0833L5.6665 9" stroke="white" stroke-width="0.833333" stroke-linecap="round" stroke-linejoin="round"/>
</g>
<path d="M33.4063 7.75H32.4375C32.3802 7.47135 32.2799 7.22656 32.1367 7.01562C31.9961 6.80469 31.8242 6.6276 31.6211 6.48438C31.4206 6.33854 31.1979 6.22917 30.9531 6.15625C30.7083 6.08333 30.4531 6.04687 30.1875 6.04687C29.7031 6.04687 29.2643 6.16927 28.8711 6.41406C28.4805 6.65885 28.1693 7.01953 27.9375 7.49609C27.7083 7.97266 27.5938 8.55729 27.5938 9.25C27.5938 9.94271 27.7083 10.5273 27.9375 11.0039C28.1693 11.4805 28.4805 11.8411 28.8711 12.0859C29.2643 12.3307 29.7031 12.4531 30.1875 12.4531C30.4531 12.4531 30.7083 12.4167 30.9531 12.3437C31.1979 12.2708 31.4206 12.1628 31.6211 12.0195C31.8242 11.8737 31.9961 11.6953 32.1367 11.4844C32.2799 11.2708 32.3802 11.026 32.4375 10.75H33.4063C33.3333 11.1589 33.2005 11.5247 33.0078 11.8477C32.8151 12.1706 32.5755 12.4453 32.2891 12.6719C32.0026 12.8958 31.681 13.0664 31.3242 13.1836C30.9701 13.3008 30.5911 13.3594 30.1875 13.3594C29.5052 13.3594 28.8984 13.1927 28.3672 12.8594C27.8359 12.526 27.418 12.0521 27.1133 11.4375C26.8086 10.8229 26.6563 10.0937 26.6563 9.25C26.6563 8.40625 26.8086 7.67708 27.1133 7.0625C27.418 6.44792 27.8359 5.97396 28.3672 5.64062C28.8984 5.30729 29.5052 5.14062 30.1875 5.14062C30.5911 5.14062 30.9701 5.19922 31.3242 5.31641C31.681 5.43359 32.0026 5.60547 32.2891 5.83203C32.5755 6.05599 32.8151 6.32943 33.0078 6.65234C33.2005 6.97266 33.3333 7.33854 33.4063 7.75ZM36.6123 13.3906C36.2321 13.3906 35.887 13.319 35.5771 13.1758C35.2673 13.0299 35.0212 12.8203 34.8389 12.5469C34.6566 12.2708 34.5654 11.9375 34.5654 11.5469C34.5654 11.2031 34.6331 10.9245 34.7686 10.7109C34.904 10.4948 35.085 10.3255 35.3115 10.2031C35.5381 10.0807 35.7881 9.98958 36.0615 9.92969C36.3376 9.86719 36.6149 9.81771 36.8936 9.78125C37.2581 9.73437 37.5537 9.69922 37.7803 9.67578C38.0094 9.64974 38.1761 9.60677 38.2803 9.54687C38.387 9.48698 38.4404 9.38281 38.4404 9.23437V9.20312C38.4404 8.81771 38.335 8.51823 38.124 8.30469C37.9157 8.09115 37.5993 7.98437 37.1748 7.98437C36.7347 7.98437 36.3896 8.08073 36.1396 8.27344C35.8896 8.46615 35.7139 8.67187 35.6123 8.89062L34.7373 8.57812C34.8936 8.21354 35.1019 7.92969 35.3623 7.72656C35.6253 7.52083 35.9118 7.3776 36.2217 7.29687C36.5342 7.21354 36.8415 7.17188 37.1436 7.17188C37.3363 7.17188 37.5576 7.19531 37.8076 7.24219C38.0602 7.28646 38.3037 7.37891 38.5381 7.51953C38.7751 7.66016 38.9717 7.8724 39.1279 8.15625C39.2842 8.4401 39.3623 8.82031 39.3623 9.29688V13.25H38.4404V12.4375H38.3936C38.3311 12.5677 38.2269 12.707 38.0811 12.8555C37.9352 13.0039 37.7412 13.1302 37.499 13.2344C37.2568 13.3385 36.9613 13.3906 36.6123 13.3906ZM36.7529 12.5625C37.1175 12.5625 37.4248 12.4909 37.6748 12.3477C37.9274 12.2044 38.1175 12.0195 38.2451 11.793C38.3753 11.5664 38.4404 11.3281 38.4404 11.0781V10.2344C38.4014 10.2812 38.3154 10.3242 38.1826 10.3633C38.0524 10.3997 37.9014 10.4323 37.7295 10.4609C37.5602 10.487 37.3949 10.5104 37.2334 10.5312C37.0745 10.5495 36.9456 10.5651 36.8467 10.5781C36.6071 10.6094 36.3831 10.6602 36.1748 10.7305C35.9691 10.7982 35.8024 10.901 35.6748 11.0391C35.5498 11.1745 35.4873 11.3594 35.4873 11.5937C35.4873 11.9141 35.6058 12.1562 35.8428 12.3203C36.0824 12.4818 36.3857 12.5625 36.7529 12.5625ZM41.0449 13.25V7.25H41.9355V8.15625H41.998C42.1074 7.85938 42.3053 7.61849 42.5918 7.43359C42.8783 7.2487 43.2012 7.15625 43.5605 7.15625C43.6283 7.15625 43.7129 7.15755 43.8145 7.16016C43.916 7.16276 43.9928 7.16667 44.0449 7.17188V8.10937C44.0137 8.10156 43.9421 8.08984 43.8301 8.07422C43.7207 8.05599 43.6048 8.04687 43.4824 8.04687C43.1908 8.04687 42.9303 8.10807 42.7012 8.23047C42.4746 8.35026 42.2949 8.51693 42.1621 8.73047C42.0319 8.94141 41.9668 9.18229 41.9668 9.45312V13.25H41.0449ZM47.377 15.625C46.9316 15.625 46.5488 15.5677 46.2285 15.4531C45.9082 15.3411 45.6413 15.1927 45.4277 15.0078C45.2168 14.8255 45.0488 14.6302 44.9238 14.4219L45.6582 13.9063C45.7415 14.0156 45.847 14.1406 45.9746 14.2812C46.1022 14.4245 46.2767 14.5482 46.498 14.6523C46.722 14.7591 47.015 14.8125 47.377 14.8125C47.8613 14.8125 48.2611 14.6953 48.5762 14.4609C48.8913 14.2266 49.0488 13.8594 49.0488 13.3594V12.1406H48.9707C48.903 12.25 48.8066 12.3854 48.6816 12.5469C48.5592 12.7057 48.3822 12.8477 48.1504 12.9727C47.9212 13.0951 47.6113 13.1562 47.2207 13.1562C46.7363 13.1562 46.3014 13.0417 45.916 12.8125C45.5332 12.5833 45.2298 12.25 45.0059 11.8125C44.7845 11.375 44.6738 10.8437 44.6738 10.2187C44.6738 9.60417 44.7819 9.06901 44.998 8.61328C45.2142 8.15495 45.515 7.80078 45.9004 7.55078C46.2858 7.29818 46.7311 7.17188 47.2363 7.17188C47.627 7.17188 47.9368 7.23698 48.166 7.36719C48.3978 7.49479 48.5749 7.64062 48.6973 7.80469C48.8223 7.96615 48.9186 8.09896 48.9863 8.20312H49.0801V7.25H49.9707V13.4219C49.9707 13.9375 49.8535 14.3568 49.6191 14.6797C49.3874 15.0052 49.0749 15.2435 48.6816 15.3945C48.291 15.5482 47.8561 15.625 47.377 15.625ZM47.3457 12.3281C47.7155 12.3281 48.028 12.2435 48.2832 12.0742C48.5384 11.9049 48.7324 11.6615 48.8652 11.3438C48.998 11.026 49.0645 10.6458 49.0645 10.2031C49.0645 9.77083 48.9993 9.38932 48.8691 9.05859C48.7389 8.72786 48.5462 8.46875 48.291 8.28125C48.0358 8.09375 47.7207 8 47.3457 8C46.9551 8 46.6296 8.09896 46.3691 8.29687C46.1113 8.49479 45.9173 8.76042 45.7871 9.09375C45.6595 9.42708 45.5957 9.79687 45.5957 10.2031C45.5957 10.6198 45.6608 10.9883 45.791 11.3086C45.9238 11.6263 46.1191 11.8763 46.377 12.0586C46.6374 12.2383 46.9603 12.3281 47.3457 12.3281ZM53.4238 13.3906C53.0436 13.3906 52.6986 13.319 52.3887 13.1758C52.0788 13.0299 51.8327 12.8203 51.6504 12.5469C51.4681 12.2708 51.377 11.9375 51.377 11.5469C51.377 11.2031 51.4447 10.9245 51.5801 10.7109C51.7155 10.4948 51.8965 10.3255 52.123 10.2031C52.3496 10.0807 52.5996 9.98958 52.873 9.92969C53.1491 9.86719 53.4264 9.81771 53.7051 9.78125C54.0697 9.73437 54.3652 9.69922 54.5918 9.67578C54.821 9.64974 54.9876 9.60677 55.0918 9.54687C55.1986 9.48698 55.252 9.38281 55.252 9.23437V9.20312C55.252 8.81771 55.1465 8.51823 54.9355 8.30469C54.7272 8.09115 54.4108 7.98437 53.9863 7.98437C53.5462 7.98437 53.2012 8.08073 52.9512 8.27344C52.7012 8.46615 52.5254 8.67187 52.4238 8.89062L51.5488 8.57812C51.7051 8.21354 51.9134 7.92969 52.1738 7.72656C52.4368 7.52083 52.7233 7.3776 53.0332 7.29687C53.3457 7.21354 53.653 7.17188 53.9551 7.17188C54.1478 7.17188 54.3691 7.19531 54.6191 7.24219C54.8717 7.28646 55.1152 7.37891 55.3496 7.51953C55.5866 7.66016 55.7832 7.8724 55.9395 8.15625C56.0957 8.4401 56.1738 8.82031 56.1738 9.29688V13.25H55.252V12.4375H55.2051C55.1426 12.5677 55.0384 12.707 54.8926 12.8555C54.7467 13.0039 54.5527 13.1302 54.3105 13.2344C54.0684 13.3385 53.7728 13.3906 53.4238 13.3906ZM53.5645 12.5625C53.929 12.5625 54.2363 12.4909 54.4863 12.3477C54.7389 12.2044 54.929 12.0195 55.0566 11.793C55.1868 11.5664 55.252 11.3281 55.252 11.0781V10.2344C55.2129 10.2812 55.127 10.3242 54.9941 10.3633C54.8639 10.3997 54.7129 10.4323 54.541 10.4609C54.3717 10.487 54.2064 10.5104 54.0449 10.5312C53.8861 10.5495 53.7572 10.5651 53.6582 10.5781C53.4186 10.6094 53.1947 10.6602 52.9863 10.7305C52.7806 10.7982 52.6139 10.901 52.4863 11.0391C52.3613 11.1745 52.2988 11.3594 52.2988 11.5937C52.2988 11.9141 52.4173 12.1562 52.6543 12.3203C52.8939 12.4818 53.1973 12.5625 53.5645 12.5625ZM53.5957 6.4375L54.5488 4.625H55.627L54.4082 6.4375H53.5957ZM63.5596 7.25V8.03125H60.4502V7.25H63.5596ZM61.3564 5.8125H62.2783V11.5312C62.2783 11.7917 62.3161 11.987 62.3916 12.1172C62.4697 12.2448 62.5687 12.3307 62.6885 12.375C62.8109 12.4167 62.9398 12.4375 63.0752 12.4375C63.1768 12.4375 63.2601 12.4323 63.3252 12.4219C63.3903 12.4089 63.4424 12.3984 63.4814 12.3906L63.6689 13.2187C63.6064 13.2422 63.5192 13.2656 63.4072 13.2891C63.2952 13.3151 63.1533 13.3281 62.9814 13.3281C62.721 13.3281 62.4658 13.2721 62.2158 13.1602C61.9684 13.0482 61.7627 12.8776 61.5986 12.6484C61.4372 12.4193 61.3564 12.1302 61.3564 11.7812V5.8125ZM68.7275 10.7969V7.25H69.6494V13.25H68.7275V12.2344H68.665C68.5244 12.5391 68.3057 12.7982 68.0088 13.0117C67.7119 13.2227 67.3369 13.3281 66.8838 13.3281C66.5088 13.3281 66.1755 13.2461 65.8838 13.082C65.5921 12.9154 65.363 12.6654 65.1963 12.332C65.0296 11.9961 64.9463 11.5729 64.9463 11.0625V7.25H65.8682V11C65.8682 11.4375 65.9906 11.7865 66.2354 12.0469C66.4827 12.3073 66.7979 12.4375 67.1807 12.4375C67.4098 12.4375 67.6429 12.3789 67.8799 12.2617C68.1195 12.1445 68.32 11.9648 68.4814 11.7227C68.6455 11.4805 68.7275 11.1719 68.7275 10.7969ZM76.6973 13.375C76.1973 13.375 75.7559 13.2487 75.373 12.9961C74.9902 12.7409 74.6908 12.3815 74.4746 11.918C74.2585 11.4518 74.1504 10.901 74.1504 10.2656C74.1504 9.63542 74.2585 9.08854 74.4746 8.625C74.6908 8.16146 74.9915 7.80339 75.377 7.55078C75.7624 7.29818 76.2077 7.17188 76.7129 7.17188C77.1035 7.17188 77.4121 7.23698 77.6387 7.36719C77.8678 7.49479 78.0423 7.64062 78.1621 7.80469C78.2845 7.96615 78.3796 8.09896 78.4473 8.20312H78.5254V5.25H79.4473V13.25H78.5566V12.3281H78.4473C78.3796 12.4375 78.2832 12.5755 78.1582 12.7422C78.0332 12.9062 77.8548 13.0534 77.623 13.1836C77.3913 13.3112 77.0827 13.375 76.6973 13.375ZM76.8223 12.5469C77.1921 12.5469 77.5046 12.4505 77.7598 12.2578C78.015 12.0625 78.209 11.793 78.3418 11.4492C78.4746 11.1029 78.541 10.7031 78.541 10.25C78.541 9.80208 78.4759 9.41016 78.3457 9.07422C78.2155 8.73568 78.0228 8.47266 77.7676 8.28516C77.5124 8.09505 77.1973 8 76.8223 8C76.4316 8 76.1061 8.10026 75.8457 8.30078C75.5879 8.4987 75.3939 8.76823 75.2637 9.10937C75.1361 9.44792 75.0723 9.82812 75.0723 10.25C75.0723 10.6771 75.1374 11.0651 75.2676 11.4141C75.4004 11.7604 75.5957 12.0365 75.8535 12.2422C76.1139 12.4453 76.4368 12.5469 76.8223 12.5469ZM81.2637 13.25V7.25H82.1855V13.25H81.2637ZM81.7324 6.25C81.5527 6.25 81.3978 6.1888 81.2676 6.06641C81.14 5.94401 81.0762 5.79688 81.0762 5.625C81.0762 5.45313 81.14 5.30599 81.2676 5.18359C81.3978 5.0612 81.5527 5 81.7324 5C81.9121 5 82.0658 5.0612 82.1934 5.18359C82.3236 5.30599 82.3887 5.45313 82.3887 5.625C82.3887 5.79688 82.3236 5.94401 82.1934 6.06641C82.0658 6.1888 81.9121 6.25 81.7324 6.25ZM88.124 8.59375L87.2959 8.82812C87.2438 8.6901 87.167 8.55599 87.0654 8.42578C86.9665 8.29297 86.8311 8.18359 86.6592 8.09766C86.4873 8.01172 86.2673 7.96875 85.999 7.96875C85.6318 7.96875 85.3258 8.05339 85.0811 8.22266C84.8389 8.38932 84.7178 8.60156 84.7178 8.85937C84.7178 9.08854 84.8011 9.26953 84.9678 9.40234C85.1344 9.53516 85.3949 9.64583 85.749 9.73437L86.6396 9.95313C87.1761 10.0833 87.5758 10.2826 87.8389 10.5508C88.1019 10.8164 88.2334 11.1589 88.2334 11.5781C88.2334 11.9219 88.1344 12.2292 87.9365 12.5C87.7412 12.7708 87.4678 12.9844 87.1162 13.1406C86.7646 13.2969 86.3558 13.375 85.8896 13.375C85.2777 13.375 84.7712 13.2422 84.3701 12.9766C83.9691 12.7109 83.7152 12.3229 83.6084 11.8125L84.4834 11.5937C84.5667 11.9167 84.7243 12.1589 84.9561 12.3203C85.1904 12.4818 85.4964 12.5625 85.874 12.5625C86.3037 12.5625 86.6449 12.4714 86.8975 12.2891C87.1527 12.1042 87.2803 11.8828 87.2803 11.625C87.2803 11.4167 87.2074 11.2422 87.0615 11.1016C86.9157 10.9583 86.6917 10.8516 86.3896 10.7812L85.3896 10.5469C84.8402 10.4167 84.4365 10.2148 84.1787 9.94141C83.9235 9.66536 83.7959 9.32031 83.7959 8.90625C83.7959 8.56771 83.891 8.26823 84.0811 8.00781C84.2738 7.7474 84.5355 7.54297 84.8662 7.39453C85.1995 7.24609 85.5771 7.17188 85.999 7.17188C86.5928 7.17188 87.0589 7.30208 87.3975 7.5625C87.7386 7.82292 87.9808 8.16667 88.124 8.59375ZM92.1367 13.375C91.5586 13.375 91.0599 13.2474 90.6406 12.9922C90.224 12.7344 89.9023 12.375 89.6758 11.9141C89.4518 11.4505 89.3398 10.9115 89.3398 10.2969C89.3398 9.68229 89.4518 9.14062 89.6758 8.67187C89.9023 8.20052 90.2174 7.83333 90.6211 7.57031C91.0273 7.30469 91.5013 7.17188 92.043 7.17188C92.3555 7.17188 92.6641 7.22396 92.9688 7.32812C93.2734 7.43229 93.5508 7.60156 93.8008 7.83594C94.0508 8.06771 94.25 8.375 94.3984 8.75781C94.5469 9.14062 94.6211 9.61198 94.6211 10.1719V10.5625H89.9961V9.76562H93.6836C93.6836 9.42708 93.6159 9.125 93.4805 8.85937C93.3477 8.59375 93.1576 8.38411 92.9102 8.23047C92.6654 8.07682 92.3763 8 92.043 8C91.6758 8 91.3581 8.09115 91.0898 8.27344C90.8242 8.45312 90.6198 8.6875 90.4766 8.97656C90.3333 9.26562 90.2617 9.57552 90.2617 9.90625V10.4375C90.2617 10.8906 90.3398 11.2747 90.4961 11.5898C90.6549 11.9023 90.875 12.1406 91.1563 12.3047C91.4375 12.4661 91.7643 12.5469 92.1367 12.5469C92.3789 12.5469 92.5977 12.513 92.793 12.4453C92.9909 12.375 93.1615 12.2708 93.3047 12.1328C93.4479 11.9922 93.5586 11.8177 93.6367 11.6094L94.5273 11.8594C94.4336 12.1615 94.276 12.4271 94.0547 12.6562C93.8333 12.8828 93.5599 13.0599 93.2344 13.1875C92.9089 13.3125 92.543 13.375 92.1367 13.375ZM96.9453 9.64062V13.25H96.0234V7.25H96.9141V8.1875H96.9922C97.1328 7.88281 97.3464 7.63802 97.6328 7.45313C97.9193 7.26563 98.2891 7.17188 98.7422 7.17188C99.1484 7.17188 99.5039 7.25521 99.8086 7.42187C100.113 7.58594 100.35 7.83594 100.52 8.17187C100.689 8.50521 100.773 8.92708 100.773 9.4375V13.25H99.8516V9.5C99.8516 9.02865 99.7292 8.66146 99.4844 8.39844C99.2396 8.13281 98.9036 8 98.4766 8C98.1823 8 97.9193 8.0638 97.6875 8.19141C97.4583 8.31901 97.2773 8.50521 97.1445 8.75C97.0117 8.99479 96.9453 9.29167 96.9453 9.64062ZM97.1953 6.53125L96.4766 6.5C96.4766 6.10156 96.5898 5.77604 96.8164 5.52344C97.0456 5.26823 97.3281 5.14062 97.6641 5.14062C97.8125 5.14062 97.944 5.16667 98.0586 5.21875C98.1732 5.26823 98.2826 5.32552 98.3867 5.39062C98.4909 5.45573 98.5977 5.51432 98.707 5.56641C98.819 5.61589 98.9453 5.64062 99.0859 5.64062C99.2344 5.64062 99.3594 5.58333 99.4609 5.46875C99.5651 5.35156 99.6172 5.21094 99.6172 5.04687L100.32 5.10938C100.32 5.51562 100.206 5.83854 99.9766 6.07812C99.75 6.31771 99.4687 6.4375 99.1328 6.4375C98.9531 6.4375 98.8047 6.41276 98.6875 6.36328C98.5703 6.3112 98.4661 6.2526 98.375 6.1875C98.2839 6.1224 98.1875 6.0651 98.0859 6.01562C97.9844 5.96354 97.8594 5.9375 97.7109 5.9375C97.5625 5.9375 97.4388 5.99609 97.3398 6.11328C97.2435 6.22786 97.1953 6.36719 97.1953 6.53125ZM104.896 13.375C104.354 13.375 103.879 13.2461 103.47 12.9883C103.063 12.7305 102.746 12.3698 102.517 11.9062C102.29 11.4427 102.177 10.901 102.177 10.2812C102.177 9.65625 102.29 9.11068 102.517 8.64453C102.746 8.17839 103.063 7.81641 103.47 7.55859C103.879 7.30078 104.354 7.17188 104.896 7.17188C105.437 7.17188 105.911 7.30078 106.317 7.55859C106.726 7.81641 107.044 8.17839 107.271 8.64453C107.5 9.11068 107.614 9.65625 107.614 10.2812C107.614 10.901 107.5 11.4427 107.271 11.9062C107.044 12.3698 106.726 12.7305 106.317 12.9883C105.911 13.2461 105.437 13.375 104.896 13.375ZM104.896 12.5469C105.307 12.5469 105.646 12.4414 105.911 12.2305C106.177 12.0195 106.373 11.7422 106.501 11.3984C106.629 11.0547 106.692 10.6823 106.692 10.2812C106.692 9.88021 106.629 9.50651 106.501 9.16016C106.373 8.8138 106.177 8.53385 105.911 8.32031C105.646 8.10677 105.307 8 104.896 8C104.484 8 104.146 8.10677 103.88 8.32031C103.614 8.53385 103.418 8.8138 103.29 9.16016C103.162 9.50651 103.099 9.88021 103.099 10.2812C103.099 10.6823 103.162 11.0547 103.29 11.3984C103.418 11.7422 103.614 12.0195 103.88 12.2305C104.146 12.4414 104.484 12.5469 104.896 12.5469Z" fill="#4F8EF7"/>
</svg>
