<?xml version="1.0" encoding="UTF-8"?>
<svg id="Capa_1" xmlns="http://www.w3.org/2000/svg" version="1.1" viewBox="0 930 2560 700">
  <!-- Generator: Adobe Illustrator 29.8.4, SVG Export Plug-In . SVG Version: 2.1.1 Build 6)  -->
  <defs>
    <style>
      .st0 {
        fill: #e8d800;
      }
    </style>
  </defs>
  <path class="st0" d="M1907.16,1604.89h-136.93v-266.72c0-7.87-9.91-29.29-15.6-35.74-17.05-19.34-55.65-18.86-75.52-4.03-7.3,5.45-20.13,25.63-20.13,34.07v268.15c0,.3-3.98,4.28-4.28,4.28h-132.65v-258.16c0-3.06-4.18-21.62-5.52-25.86-15.05-47.5-87.47-43.14-103.53,2.39-1.02,2.89-5.06,18.98-5.06,20.61v261.02h-132.65c-.3,0-4.28-3.98-4.28-4.28v-426.47h136.93c1.12,3.79-3.47,23.02,4.23,19.94,8.01-3.21,20.41-13.33,30.91-17.6,57.25-23.28,124.04-18.83,169.22,25.91,84.83-58.98,230.69-58.8,278.29,46.8,5.56,12.34,16.57,48.04,16.57,60.46v295.25Z"/>
  <path class="st0" d="M420.93,1604.89h-136.93v-258.16c0-8.97-9.59-30.9-15.63-38.57-20.86-26.53-72.01-26.98-96.61-5.21-8.32,7.36-21.83,33.34-21.83,43.78v258.16H13v-430.75h136.93c1,0-.74,17.31.02,19.95,16.05-7.05,30.93-16.72,47.86-22,88.16-27.5,180.29,3.97,211.82,94.64,3.38,9.71,11.3,39.72,11.3,48.61v289.54Z"/>
  <path class="st0" d="M1165.47,1060.03v114.11h77.02v122.66h-77.02v303.81c0,.3-3.98,4.28-4.28,4.28h-131.22c-.3,0-4.28-3.98-4.28-4.28v-303.81h-65.61v-122.66h65.61v-109.83c0-.3,3.98-4.28,4.28-4.28h135.5Z"/>
  <path class="st0" d="M2075.46,1174.14v426.47c0,.3-3.98,4.28-4.28,4.28h-132.65v-430.75h136.93Z"/>
  <path class="st0" d="M1989.14,958.02c120.98-19.01,139.63,155,27.54,167.3-112.58,12.36-129.54-151.28-27.54-167.3Z"/>
  <path class="st0" d="M2416.35,985.87c-.3,0-4.28,3.98-4.28,4.28v195.41c-116.59-83.45-268.29-6.13-300.98,125.49-41,165.07,80.86,333.45,256.82,282.5l44.14-22.87c-.25,4.57-1.21,22.81,4.29,22.81h132.65v-607.61h-132.65ZM2344.29,1481.48c-131.54,19.29-131.12-191.31-38.51-206.82,141.13-23.65,141.77,191.68,38.51,206.82Z"/>
  <path class="st0" d="M841.57,1197.08c-5.81-4.57-31.04-19.11-32-20.76-4.78-8.21-6.18-64.51-16.36-64.61-11.04,5.41-42.56,37.76-51.69,38.8-8.86,1.01-26.43-4.64-36.64-5.02-13.34-.5-52.2,4.63-59.44,2.41-10.99-3.38-40.99-44.32-50.4-36.44-2.37,1.98-9.65,51.25-15.93,59.69-2.45,3.29-40.56,25.02-49.82,32.9-154.17,131.22-70.43,369.27,124.46,397.65,233.94,34.06,380.92-252.64,187.82-404.62ZM679.13,1485.03c-127.09-10.07-131.22-203.72-4.95-218.81,162.77-19.45,166.24,231.59,4.95,218.81Z"/>
</svg>
