<svg width="18" height="24" viewBox="0 0 18 24" fill="none" xmlns="http://www.w3.org/2000/svg">
<rect x="1" y="15.4263" width="11.4384" height="11.4384" rx="1" transform="rotate(-45 1 15.4263)" stroke="#D9D9D9"/>
<path d="M1.21581 4.70918C1.03564 4.91845 1.05923 5.23415 1.2685 5.41432C1.47777 5.59449 1.79347 5.5709 1.97364 5.36163L1.59473 5.0354L1.21581 4.70918ZM9.10538 1.00001L9.10426 0.500014L9.10538 1.00001ZM16.5453 6.10798C16.8187 6.14703 17.0719 5.95708 17.111 5.68372L17.7474 1.22895C17.7865 0.955585 17.5965 0.702317 17.3232 0.663262C17.0498 0.624207 16.7965 0.814154 16.7575 1.08752L16.1918 5.04731L12.232 4.48159C11.9586 4.44253 11.7053 4.63248 11.6663 4.90585C11.6272 5.17922 11.8172 5.43248 12.0905 5.47154L16.5453 6.10798ZM1.59473 5.0354C1.97364 5.36163 1.97356 5.36172 1.9735 5.3618C1.97349 5.3618 1.97344 5.36186 1.97343 5.36187C1.97342 5.36189 1.97345 5.36185 1.97354 5.36175C1.97371 5.36155 1.97409 5.36111 1.97468 5.36043C1.97586 5.35908 1.97787 5.35677 1.98069 5.35355C1.98633 5.34712 1.99525 5.33702 2.00734 5.3235C2.03152 5.29647 2.06839 5.25578 2.11725 5.20338C2.215 5.09856 2.36053 4.9471 2.5482 4.76454C2.92407 4.39889 3.46614 3.91123 4.12944 3.42409C5.4689 2.44038 7.24123 1.50418 9.10649 1.50001L9.10538 1.00001L9.10426 0.500014C6.92533 0.504885 4.94233 1.58639 3.53751 2.6181C2.82868 3.13868 2.25138 3.65817 1.85091 4.04775C1.6504 4.2428 1.49352 4.40597 1.3859 4.52138C1.33208 4.57909 1.29052 4.62492 1.26195 4.65687C1.24766 4.67284 1.23662 4.68535 1.2289 4.69415C1.22504 4.69855 1.22201 4.70202 1.21983 4.70454C1.21873 4.7058 1.21785 4.70681 1.21718 4.70759C1.21685 4.70798 1.21657 4.7083 1.21634 4.70857C1.21622 4.7087 1.21609 4.70885 1.21603 4.70892C1.21592 4.70906 1.21581 4.70918 1.59473 5.0354ZM9.10538 1.00001L9.10649 1.50001C10.9484 1.49589 12.7108 2.55455 14.0554 3.68573C14.7191 4.24414 15.262 4.8041 15.6388 5.22463C15.827 5.43457 15.9729 5.60889 16.0711 5.72974C16.1202 5.79014 16.1573 5.83711 16.1817 5.86842C16.1939 5.88407 16.2029 5.8958 16.2087 5.90332C16.2115 5.90708 16.2136 5.9098 16.2148 5.91142C16.2154 5.91223 16.2159 5.91277 16.2161 5.91304C16.2162 5.91317 16.2162 5.91323 16.2162 5.91323C16.2162 5.91322 16.2161 5.91317 16.2161 5.91317C16.2161 5.91309 16.216 5.913 16.616 5.613C17.016 5.31301 17.0159 5.31288 17.0158 5.31273C17.0158 5.31266 17.0156 5.3125 17.0155 5.31236C17.0153 5.31207 17.0151 5.31171 17.0147 5.31128C17.0141 5.31043 17.0132 5.30929 17.0122 5.30788C17.01 5.30507 17.0071 5.30115 17.0032 5.29617C16.9956 5.2862 16.9847 5.27198 16.9705 5.25378C16.9422 5.21738 16.9008 5.16506 16.8472 5.0991C16.74 4.96721 16.5836 4.78051 16.3836 4.55727C15.9841 4.11146 15.4075 3.51648 14.6992 2.92051C13.2994 1.74293 11.3066 0.495091 9.10426 0.500014L9.10538 1.00001Z" fill="#D9D9D9"/>
</svg>
