<svg width="24" height="28" viewBox="0 0 24 28" fill="none" xmlns="http://www.w3.org/2000/svg">
<g clip-path="url(#clip0_1319_39)">
<path d="M21.5241 0.0102151C21.2664 -0.0202152 20.9616 0.0325307 20.6967 0.0102151C20.2478 0.169467 19.7886 0.321619 19.402 0.612737L15.5333 4.43378C15.2766 4.28771 15.1406 4.04731 14.8685 3.90125C13.5933 3.21758 12.226 4.60622 12.9654 5.8427C13.085 6.04354 13.5391 6.31742 13.447 6.51319L4.37391 15.5064C3.70713 16.2296 3.8278 17.5969 3.42589 18.3932C3.26534 18.7107 2.45334 19.3203 2.1721 19.6642C1.01239 21.0832 2.68548 22.6697 3.98632 21.7913C4.45163 21.4768 4.93535 20.6856 5.4201 20.4249C6.24335 19.9837 7.60043 20.1105 8.36334 19.4623C10.2747 17.5878 12.1636 15.6717 14.0821 13.8165C14.2416 13.6623 14.5004 13.3205 14.6671 13.1795C14.6988 13.1237 14.7387 13.074 14.7877 13.0314C14.8051 13.006 14.8246 12.9827 14.8471 12.9624C14.8859 12.9269 14.9176 12.8863 14.9544 12.8498C15.0097 12.794 15.0721 12.7474 15.1406 12.7108C15.2214 12.6277 15.3103 12.5982 15.4054 12.5049C16.1029 11.8131 16.8045 11.1143 17.4712 10.3981H17.5254C17.7811 10.6903 18.1176 11.0483 18.5236 11.1041C19.9215 11.2958 20.7243 9.94878 19.8919 8.81778C19.7876 8.67679 19.4665 8.4942 19.5626 8.32075L20.2304 7.72229C21.3165 6.30119 23.9928 4.77561 23.9989 2.83212C24.003 1.47087 22.8965 0.173525 21.523 0.0112295L21.5241 0.0102151Z" fill="#EEECE4"/>
<path d="M2.39184 27.9997H1.67495C1.17896 27.7837 0.748413 27.593 0.406841 27.1528C-0.164831 26.4153 -0.0676775 25.6444 0.287189 24.8471C0.472292 24.4313 1.56041 22.6085 1.90914 22.4655C2.05947 22.4036 2.17197 22.4046 2.3223 22.4655C2.54217 22.5557 3.29997 23.7405 3.46155 24.0134C4.30014 25.4263 4.72148 26.7348 3.07089 27.7715L2.39082 27.9997H2.39184Z" fill="#EEECE4"/>
<path d="M13.4194 13.0757L7.62804 18.8412C6.69945 19.2459 5.44566 19.179 4.65207 19.8272C4.37697 20.0513 3.61917 20.9592 3.38805 21.0332C3.02091 21.1509 2.64252 20.9003 2.74684 20.5108C2.83581 20.1802 3.74905 19.4721 4.01904 19.1455C4.64184 18.3898 4.59889 17.1148 4.99159 16.2283L8.15369 13.0767H13.4194V13.0757Z" fill="#808080"/>
<path d="M21.1262 0.954565C22.6929 0.921092 23.5806 2.70735 22.6561 3.9479L18.907 7.66751L18.8027 7.71518L16.1775 5.12251L19.9542 1.37856C20.2661 1.13816 20.7294 0.963694 21.1262 0.954565Z" fill="#232323"/>
<path d="M9.11914 12.1457L14.1711 7.12061L16.8372 9.71327L14.3849 12.1457H9.11914Z" fill="#232323"/>
<path d="M14.0657 4.667C14.3061 4.61426 14.4063 4.71062 14.5781 4.84756L19.1545 9.38473C19.5206 9.82495 19.0962 10.3697 18.5716 10.1262L13.8305 5.42371C13.5769 5.17012 13.7323 4.74004 14.0657 4.667Z" fill="#232323"/>
<path d="M2.06263 23.6807C2.17205 23.6066 3.09041 25.2478 3.15177 25.4162C3.68969 26.8992 1.87139 27.6447 1.13404 26.5421C0.524531 25.6302 1.67401 24.48 2.06263 23.6817V23.6807Z" fill="#808080"/>
</g>
<defs>
<clipPath id="clip0_1319_39">
<rect width="24" height="28" fill="white"/>
</clipPath>
</defs>
</svg>
